<mxfile host="app.diagrams.net" modified="2023-03-15T03:47:53.731Z" agent="5.0 (Windows NT 10.0; Win64; x64) AppleWebKit/537.36 (KHTML, like Gecko) Chrome/110.0.0.0 Safari/537.36" etag="iq1sqdrIy6JxFAOVgJlR" version="21.0.4" type="github">
  <diagram name="第 1 页" id="K05jFmEpUa6yexNYUmjU">
    <mxGraphModel dx="2390" dy="2496" grid="1" gridSize="10" guides="1" tooltips="1" connect="1" arrows="1" fold="1" page="1" pageScale="1" pageWidth="827" pageHeight="1169" math="0" shadow="0">
      <root>
        <mxCell id="0" />
        <mxCell id="1" parent="0" />
        <mxCell id="cSzgPnBqxu63beRPkphZ-10" value="VRChat-&amp;gt;VRM" style="rounded=0;whiteSpace=wrap;html=1;fillColor=#d5e8d4;strokeColor=#82b366;" vertex="1" parent="1">
          <mxGeometry x="150" y="500" width="150" height="60" as="geometry" />
        </mxCell>
        <mxCell id="cSzgPnBqxu63beRPkphZ-11" value="实例化go" style="rounded=0;whiteSpace=wrap;html=1;" vertex="1" parent="1">
          <mxGeometry x="150" y="585" width="150" height="60" as="geometry" />
        </mxCell>
        <mxCell id="cSzgPnBqxu63beRPkphZ-12" value="移除go中inactive的transform以及disable掉的Component" style="rounded=0;whiteSpace=wrap;html=1;" vertex="1" parent="1">
          <mxGeometry x="150" y="680" width="150" height="60" as="geometry" />
        </mxCell>
        <mxCell id="cSzgPnBqxu63beRPkphZ-13" value="取得VRChat的表情列表，key为表情枚举；value为字典，记载表情及对应权重信息" style="whiteSpace=wrap;html=1;" vertex="1" parent="1">
          <mxGeometry x="145" y="770" width="160" height="60" as="geometry" />
        </mxCell>
        <mxCell id="cSzgPnBqxu63beRPkphZ-14" value="建立临时文件夹，&lt;br&gt;VRMInitializer.Initialize生成初始vrm信息，删除初始的VrmSpringBone" style="whiteSpace=wrap;html=1;" vertex="1" parent="1">
          <mxGeometry x="145" y="860" width="160" height="60" as="geometry" />
        </mxCell>
        <mxCell id="cSzgPnBqxu63beRPkphZ-15" value="VRCPhysBone-&amp;gt;VrmSpringBone&lt;br&gt;借助Converter进行" style="whiteSpace=wrap;html=1;" vertex="1" parent="1">
          <mxGeometry x="60" y="960" width="160" height="60" as="geometry" />
        </mxCell>
        <mxCell id="cSzgPnBqxu63beRPkphZ-21" value="Converter&lt;br&gt;namespace Esperecyan.UniVRMExtensions.SwayingObjects" style="swimlane;fontStyle=0;childLayout=stackLayout;horizontal=1;startSize=30;horizontalStack=0;resizeParent=1;resizeParentMax=0;resizeLast=0;collapsible=1;marginBottom=0;whiteSpace=wrap;html=1;" vertex="1" parent="1">
          <mxGeometry x="260" y="-50" width="950" height="120" as="geometry" />
        </mxCell>
        <mxCell id="cSzgPnBqxu63beRPkphZ-22" value="SwayingObjectsConverterSetting:ConvertVrmSpringBonesOnly,ConvertVrmSpringBonesAndVrmSpringBoneColliderGroups,RemoveSwayingObjects," style="text;strokeColor=none;fillColor=none;align=left;verticalAlign=middle;spacingLeft=4;spacingRight=4;overflow=hidden;points=[[0,0.5],[1,0.5]];portConstraint=eastwest;rotatable=0;whiteSpace=wrap;html=1;" vertex="1" parent="cSzgPnBqxu63beRPkphZ-21">
          <mxGeometry y="30" width="950" height="30" as="geometry" />
        </mxCell>
        <mxCell id="cSzgPnBqxu63beRPkphZ-23" value="OSCComponents:None,Blink" style="text;strokeColor=none;fillColor=none;align=left;verticalAlign=middle;spacingLeft=4;spacingRight=4;overflow=hidden;points=[[0,0.5],[1,0.5]];portConstraint=eastwest;rotatable=0;whiteSpace=wrap;html=1;" vertex="1" parent="cSzgPnBqxu63beRPkphZ-21">
          <mxGeometry y="60" width="950" height="30" as="geometry" />
        </mxCell>
        <mxCell id="cSzgPnBqxu63beRPkphZ-24" value="RequiredComponents:Animator VRMMeta VRMHumanoidDescription VRMFirstPerson" style="text;strokeColor=none;fillColor=none;align=left;verticalAlign=middle;spacingLeft=4;spacingRight=4;overflow=hidden;points=[[0,0.5],[1,0.5]];portConstraint=eastwest;rotatable=0;whiteSpace=wrap;html=1;" vertex="1" parent="cSzgPnBqxu63beRPkphZ-21">
          <mxGeometry y="90" width="950" height="30" as="geometry" />
        </mxCell>
        <mxCell id="cSzgPnBqxu63beRPkphZ-25" value="Converter&lt;br style=&quot;border-color: var(--border-color); font-weight: 400;&quot;&gt;&lt;span style=&quot;font-weight: 400;&quot;&gt;namespace Esperecyan.UniVRMExtensions.SwayingObjects&lt;/span&gt;" style="swimlane;whiteSpace=wrap;html=1;startSize=40;" vertex="1" parent="1">
          <mxGeometry x="556" y="85" width="410" height="310" as="geometry" />
        </mxCell>
        <mxCell id="cSzgPnBqxu63beRPkphZ-26" value="传入source Animator&lt;br&gt;以及&lt;br&gt;dest Animator" style="rounded=0;whiteSpace=wrap;html=1;" vertex="1" parent="cSzgPnBqxu63beRPkphZ-25">
          <mxGeometry x="145" y="60" width="120" height="60" as="geometry" />
        </mxCell>
        <mxCell id="cSzgPnBqxu63beRPkphZ-27" value="BoneMapper根据src Animator生成骨骼信息" style="rounded=0;whiteSpace=wrap;html=1;" vertex="1" parent="cSzgPnBqxu63beRPkphZ-25">
          <mxGeometry x="140" y="140" width="120" height="60" as="geometry" />
        </mxCell>
        <mxCell id="cSzgPnBqxu63beRPkphZ-28" value="生成secondary层级" style="rounded=0;whiteSpace=wrap;html=1;" vertex="1" parent="cSzgPnBqxu63beRPkphZ-25">
          <mxGeometry x="140" y="230" width="120" height="60" as="geometry" />
        </mxCell>
        <mxCell id="cSzgPnBqxu63beRPkphZ-29" value="DynamicBone-&amp;gt;VrmSpringBone&lt;br&gt;借助Converter进行" style="whiteSpace=wrap;html=1;" vertex="1" parent="1">
          <mxGeometry x="270" y="960" width="160" height="60" as="geometry" />
        </mxCell>
        <mxCell id="cSzgPnBqxu63beRPkphZ-30" value="VRMNormalizer对go进行一次TPose处理" style="whiteSpace=wrap;html=1;" vertex="1" parent="1">
          <mxGeometry x="150" y="1080" width="160" height="60" as="geometry" />
        </mxCell>
        <mxCell id="cSzgPnBqxu63beRPkphZ-31" value="CombineMesh" style="whiteSpace=wrap;html=1;" vertex="1" parent="1">
          <mxGeometry x="150" y="1180" width="160" height="60" as="geometry" />
        </mxCell>
        <mxCell id="cSzgPnBqxu63beRPkphZ-34" value="处理skinmeshrenderer&lt;br&gt;划分为包含bs的mesh和不带bs的mesh" style="whiteSpace=wrap;html=1;" vertex="1" parent="1">
          <mxGeometry x="150" y="1280" width="160" height="60" as="geometry" />
        </mxCell>
        <mxCell id="cSzgPnBqxu63beRPkphZ-35" value="shader替换" style="whiteSpace=wrap;html=1;" vertex="1" parent="1">
          <mxGeometry x="150" y="1370" width="160" height="60" as="geometry" />
        </mxCell>
        <mxCell id="cSzgPnBqxu63beRPkphZ-36" value="&lt;div&gt;将GameObject网状物等作为资产保存(如果不作为资产存在就无法正常导出)&lt;/div&gt;&lt;div&gt;&lt;br&gt;&lt;/div&gt;" style="whiteSpace=wrap;html=1;" vertex="1" parent="1">
          <mxGeometry x="110" y="1460" width="240" height="60" as="geometry" />
        </mxCell>
        <mxCell id="cSzgPnBqxu63beRPkphZ-37" value="设置表情&lt;br&gt;将go对应smr的blendshapeavatar对应值设置上" style="whiteSpace=wrap;html=1;" vertex="1" parent="1">
          <mxGeometry x="150" y="1550" width="160" height="60" as="geometry" />
        </mxCell>
        <mxCell id="cSzgPnBqxu63beRPkphZ-38" value="最后的IO相关逻辑" style="whiteSpace=wrap;html=1;" vertex="1" parent="1">
          <mxGeometry x="150" y="1670" width="160" height="60" as="geometry" />
        </mxCell>
        <mxCell id="cSzgPnBqxu63beRPkphZ-39" value="VRM-&amp;gt;VRChat" style="rounded=0;whiteSpace=wrap;html=1;fillColor=#dae8fc;strokeColor=#6c8ebf;" vertex="1" parent="1">
          <mxGeometry x="1270" y="480" width="150" height="60" as="geometry" />
        </mxCell>
        <mxCell id="cSzgPnBqxu63beRPkphZ-40" value="实例化vrm prefab" style="rounded=0;whiteSpace=wrap;html=1;" vertex="1" parent="1">
          <mxGeometry x="1270" y="570" width="150" height="60" as="geometry" />
        </mxCell>
        <mxCell id="cSzgPnBqxu63beRPkphZ-41" value="获取vrm内的blendshape clip&lt;br&gt;VrmProxy-&amp;gt;bsAvatar-&amp;gt;bsclip" style="rounded=0;whiteSpace=wrap;html=1;" vertex="1" parent="1">
          <mxGeometry x="1270" y="670" width="150" height="60" as="geometry" />
        </mxCell>
        <mxCell id="cSzgPnBqxu63beRPkphZ-43" value="Converter工作流" style="swimlane;fontStyle=0;childLayout=stackLayout;horizontal=1;startSize=30;horizontalStack=0;resizeParent=1;resizeParentMax=0;resizeLast=0;collapsible=1;marginBottom=0;whiteSpace=wrap;html=1;" vertex="1" parent="1">
          <mxGeometry x="1195" y="780" width="300" height="590" as="geometry" />
        </mxCell>
        <mxCell id="cSzgPnBqxu63beRPkphZ-44" value="GeometryCorrector&lt;br&gt;关于尺寸等的调整,根据肩高是否合规进行适当scale" style="text;strokeColor=default;fillColor=none;align=left;verticalAlign=middle;spacingLeft=4;spacingRight=4;overflow=hidden;points=[[0,0.5],[1,0.5]];portConstraint=eastwest;rotatable=0;whiteSpace=wrap;html=1;" vertex="1" parent="cSzgPnBqxu63beRPkphZ-43">
          <mxGeometry y="30" width="300" height="60" as="geometry" />
        </mxCell>
        <mxCell id="cSzgPnBqxu63beRPkphZ-45" value="BlendShapeReplacer&lt;br&gt;&lt;span style=&quot;&quot;&gt;	&lt;/span&gt;&lt;span style=&quot;white-space: pre;&quot;&gt;	&lt;/span&gt;SetLipSync：设置对口型，viseme in smr&lt;br&gt;&lt;span style=&quot;white-space: pre;&quot;&gt;	&lt;/span&gt;EnableEyeLook:设置眨眼bs(如果有)&lt;br&gt;&lt;span style=&quot;white-space: pre;&quot;&gt;	&lt;/span&gt;SetFeelings:新增VRCAvatarDescriptor，并预设好AnimationLayer,BlendTree等，如果vrm有预设的表情bs，可以直接映射，命名规范在MappingBlendShapeToVRChatAnim。&lt;br&gt;" style="text;strokeColor=default;fillColor=none;align=left;verticalAlign=middle;spacingLeft=4;spacingRight=4;overflow=hidden;points=[[0,0.5],[1,0.5]];portConstraint=eastwest;rotatable=0;whiteSpace=wrap;html=1;" vertex="1" parent="cSzgPnBqxu63beRPkphZ-43">
          <mxGeometry y="90" width="300" height="120" as="geometry" />
        </mxCell>
        <mxCell id="cSzgPnBqxu63beRPkphZ-46" value="ComponentsReplacer&lt;br&gt;&lt;span style=&quot;&quot;&gt;	&lt;/span&gt;&lt;span style=&quot;white-space: pre;&quot;&gt;	&lt;/span&gt;ConvertVRMFirstPerson:根据vrmfps的数据调整VRCDes的viewPos；&lt;br&gt;&lt;span style=&quot;white-space: pre;&quot;&gt;	&lt;/span&gt;（如需要）移除不用的collider&lt;br&gt;&lt;span style=&quot;white-space: pre;&quot;&gt;	&lt;/span&gt;VRMSpringBone-&amp;gt;VRCPhysBone" style="text;strokeColor=default;fillColor=none;align=left;verticalAlign=middle;spacingLeft=4;spacingRight=4;overflow=hidden;points=[[0,0.5],[1,0.5]];portConstraint=eastwest;rotatable=0;whiteSpace=wrap;html=1;" vertex="1" parent="cSzgPnBqxu63beRPkphZ-43">
          <mxGeometry y="210" width="300" height="80" as="geometry" />
        </mxCell>
        <mxCell id="cSzgPnBqxu63beRPkphZ-47" value="VRChatsBugsWorkaround&lt;br&gt;&lt;span style=&quot;&quot;&gt;	&lt;/span&gt;&lt;span style=&quot;white-space: pre;&quot;&gt;	&lt;/span&gt;EnableAnimationOverride:如果相比humaniod骨骼有缺失，创建dummy bone以对应上&lt;br&gt;&lt;span style=&quot;&quot;&gt;	&lt;/span&gt;&lt;span style=&quot;&quot;&gt;	&lt;/span&gt;&lt;span style=&quot;&quot;&gt;	&lt;/span&gt;&lt;span style=&quot;white-space: pre;&quot;&gt;	&lt;/span&gt;[optional]RemoveUpperChest&lt;br&gt;&lt;span style=&quot;&quot;&gt;	&lt;/span&gt;&lt;span style=&quot;&quot;&gt;	&lt;/span&gt;&lt;span style=&quot;white-space: pre;&quot;&gt;	&lt;/span&gt;AddShouldersPositionYAndEyesPositionZ:肩膀&amp;amp;眼球的位置矫正(配置窗口可设置)&lt;br&gt;&lt;span style=&quot;white-space: pre;&quot;&gt;	&lt;/span&gt;EnableTextureMipmapStreaming：Avatar用到的texture的streamingMipmaps设置打开" style="text;strokeColor=default;fillColor=none;align=left;verticalAlign=middle;spacingLeft=4;spacingRight=4;overflow=hidden;points=[[0,0.5],[1,0.5]];portConstraint=eastwest;rotatable=0;whiteSpace=wrap;html=1;" vertex="1" parent="cSzgPnBqxu63beRPkphZ-43">
          <mxGeometry y="290" width="300" height="150" as="geometry" />
        </mxCell>
        <mxCell id="cSzgPnBqxu63beRPkphZ-49" value="RemoveBlockedComponents：移除白名单以外的组件" style="text;strokeColor=default;fillColor=none;align=left;verticalAlign=middle;spacingLeft=4;spacingRight=4;overflow=hidden;points=[[0,0.5],[1,0.5]];portConstraint=eastwest;rotatable=0;whiteSpace=wrap;html=1;" vertex="1" parent="cSzgPnBqxu63beRPkphZ-43">
          <mxGeometry y="440" width="300" height="50" as="geometry" />
        </mxCell>
        <mxCell id="cSzgPnBqxu63beRPkphZ-50" value="IO" style="text;strokeColor=default;fillColor=none;align=left;verticalAlign=middle;spacingLeft=4;spacingRight=4;overflow=hidden;points=[[0,0.5],[1,0.5]];portConstraint=eastwest;rotatable=0;whiteSpace=wrap;html=1;" vertex="1" parent="cSzgPnBqxu63beRPkphZ-43">
          <mxGeometry y="490" width="300" height="50" as="geometry" />
        </mxCell>
        <mxCell id="cSzgPnBqxu63beRPkphZ-51" value="[Quest]CalculateQuestVRCPhysBoneLimitations&lt;br&gt;如果超过了Quest的VRCPhysBone的限制的既定值的话警告消息，超过了硬限度的话错误消息返回。" style="text;strokeColor=default;fillColor=none;align=left;verticalAlign=middle;spacingLeft=4;spacingRight=4;overflow=hidden;points=[[0,0.5],[1,0.5]];portConstraint=eastwest;rotatable=0;whiteSpace=wrap;html=1;" vertex="1" parent="cSzgPnBqxu63beRPkphZ-43">
          <mxGeometry y="540" width="300" height="50" as="geometry" />
        </mxCell>
        <mxCell id="cSzgPnBqxu63beRPkphZ-52" value="剩余Pipeline处理" style="rounded=0;whiteSpace=wrap;html=1;" vertex="1" parent="1">
          <mxGeometry x="1270" y="1430" width="150" height="60" as="geometry" />
        </mxCell>
        <mxCell id="cSzgPnBqxu63beRPkphZ-53" value="" style="endArrow=classic;html=1;rounded=0;exitX=0.5;exitY=1;exitDx=0;exitDy=0;entryX=0.5;entryY=0;entryDx=0;entryDy=0;" edge="1" parent="1" source="cSzgPnBqxu63beRPkphZ-39" target="cSzgPnBqxu63beRPkphZ-40">
          <mxGeometry width="50" height="50" relative="1" as="geometry">
            <mxPoint x="1530" y="450" as="sourcePoint" />
            <mxPoint x="1580" y="400" as="targetPoint" />
          </mxGeometry>
        </mxCell>
        <mxCell id="cSzgPnBqxu63beRPkphZ-54" value="" style="endArrow=classic;html=1;rounded=0;exitX=0.5;exitY=1;exitDx=0;exitDy=0;entryX=0.5;entryY=0;entryDx=0;entryDy=0;" edge="1" parent="1" source="cSzgPnBqxu63beRPkphZ-40" target="cSzgPnBqxu63beRPkphZ-41">
          <mxGeometry width="50" height="50" relative="1" as="geometry">
            <mxPoint x="1355" y="550" as="sourcePoint" />
            <mxPoint x="1355" y="580" as="targetPoint" />
          </mxGeometry>
        </mxCell>
        <mxCell id="cSzgPnBqxu63beRPkphZ-55" value="" style="endArrow=classic;html=1;rounded=0;exitX=0.5;exitY=1;exitDx=0;exitDy=0;entryX=0.5;entryY=0;entryDx=0;entryDy=0;" edge="1" parent="1" source="cSzgPnBqxu63beRPkphZ-41" target="cSzgPnBqxu63beRPkphZ-43">
          <mxGeometry width="50" height="50" relative="1" as="geometry">
            <mxPoint x="1355" y="640" as="sourcePoint" />
            <mxPoint x="1355" y="680" as="targetPoint" />
          </mxGeometry>
        </mxCell>
        <mxCell id="cSzgPnBqxu63beRPkphZ-56" value="" style="endArrow=classic;html=1;rounded=0;exitX=0.5;exitY=1.04;exitDx=0;exitDy=0;entryX=0.5;entryY=0;entryDx=0;entryDy=0;exitPerimeter=0;" edge="1" parent="1" source="cSzgPnBqxu63beRPkphZ-51" target="cSzgPnBqxu63beRPkphZ-52">
          <mxGeometry width="50" height="50" relative="1" as="geometry">
            <mxPoint x="1355" y="740" as="sourcePoint" />
            <mxPoint x="1355" y="790" as="targetPoint" />
          </mxGeometry>
        </mxCell>
        <mxCell id="cSzgPnBqxu63beRPkphZ-57" value="" style="endArrow=classic;html=1;rounded=0;exitX=0.5;exitY=1;exitDx=0;exitDy=0;entryX=0.5;entryY=0;entryDx=0;entryDy=0;" edge="1" parent="1" source="cSzgPnBqxu63beRPkphZ-10" target="cSzgPnBqxu63beRPkphZ-11">
          <mxGeometry width="50" height="50" relative="1" as="geometry">
            <mxPoint x="490" y="610" as="sourcePoint" />
            <mxPoint x="540" y="560" as="targetPoint" />
          </mxGeometry>
        </mxCell>
        <mxCell id="cSzgPnBqxu63beRPkphZ-58" value="" style="endArrow=classic;html=1;rounded=0;entryX=0.5;entryY=0;entryDx=0;entryDy=0;exitX=0.5;exitY=1;exitDx=0;exitDy=0;" edge="1" parent="1" source="cSzgPnBqxu63beRPkphZ-11" target="cSzgPnBqxu63beRPkphZ-12">
          <mxGeometry width="50" height="50" relative="1" as="geometry">
            <mxPoint x="225" y="640" as="sourcePoint" />
            <mxPoint x="220" y="670" as="targetPoint" />
          </mxGeometry>
        </mxCell>
        <mxCell id="cSzgPnBqxu63beRPkphZ-59" value="" style="endArrow=classic;html=1;rounded=0;entryX=0.5;entryY=0;entryDx=0;entryDy=0;exitX=0.5;exitY=1;exitDx=0;exitDy=0;" edge="1" parent="1" source="cSzgPnBqxu63beRPkphZ-12" target="cSzgPnBqxu63beRPkphZ-13">
          <mxGeometry width="50" height="50" relative="1" as="geometry">
            <mxPoint x="230" y="740" as="sourcePoint" />
            <mxPoint x="235" y="690" as="targetPoint" />
          </mxGeometry>
        </mxCell>
        <mxCell id="cSzgPnBqxu63beRPkphZ-60" value="" style="endArrow=classic;html=1;rounded=0;entryX=0.5;entryY=0;entryDx=0;entryDy=0;exitX=0.5;exitY=1;exitDx=0;exitDy=0;" edge="1" parent="1" source="cSzgPnBqxu63beRPkphZ-13" target="cSzgPnBqxu63beRPkphZ-14">
          <mxGeometry width="50" height="50" relative="1" as="geometry">
            <mxPoint x="235" y="750" as="sourcePoint" />
            <mxPoint x="235" y="780" as="targetPoint" />
          </mxGeometry>
        </mxCell>
        <mxCell id="cSzgPnBqxu63beRPkphZ-62" value="" style="endArrow=classic;html=1;rounded=0;entryX=0.5;entryY=0;entryDx=0;entryDy=0;exitX=0.5;exitY=1;exitDx=0;exitDy=0;" edge="1" parent="1" source="cSzgPnBqxu63beRPkphZ-14" target="cSzgPnBqxu63beRPkphZ-15">
          <mxGeometry width="50" height="50" relative="1" as="geometry">
            <mxPoint x="235" y="840" as="sourcePoint" />
            <mxPoint x="235" y="870" as="targetPoint" />
          </mxGeometry>
        </mxCell>
        <mxCell id="cSzgPnBqxu63beRPkphZ-63" value="" style="endArrow=classic;html=1;rounded=0;entryX=0.5;entryY=0;entryDx=0;entryDy=0;exitX=0.5;exitY=1;exitDx=0;exitDy=0;" edge="1" parent="1" source="cSzgPnBqxu63beRPkphZ-14" target="cSzgPnBqxu63beRPkphZ-29">
          <mxGeometry width="50" height="50" relative="1" as="geometry">
            <mxPoint x="235" y="930" as="sourcePoint" />
            <mxPoint x="150" y="970" as="targetPoint" />
          </mxGeometry>
        </mxCell>
        <mxCell id="cSzgPnBqxu63beRPkphZ-64" value="" style="endArrow=classic;html=1;rounded=0;exitX=0.5;exitY=1;exitDx=0;exitDy=0;entryX=0.5;entryY=0;entryDx=0;entryDy=0;" edge="1" parent="1" source="cSzgPnBqxu63beRPkphZ-15" target="cSzgPnBqxu63beRPkphZ-30">
          <mxGeometry width="50" height="50" relative="1" as="geometry">
            <mxPoint x="235" y="930" as="sourcePoint" />
            <mxPoint x="150" y="970" as="targetPoint" />
          </mxGeometry>
        </mxCell>
        <mxCell id="cSzgPnBqxu63beRPkphZ-65" value="" style="endArrow=classic;html=1;rounded=0;exitX=0.5;exitY=1;exitDx=0;exitDy=0;entryX=0.5;entryY=0;entryDx=0;entryDy=0;" edge="1" parent="1" source="cSzgPnBqxu63beRPkphZ-29" target="cSzgPnBqxu63beRPkphZ-30">
          <mxGeometry width="50" height="50" relative="1" as="geometry">
            <mxPoint x="150" y="1030" as="sourcePoint" />
            <mxPoint x="240" y="1080" as="targetPoint" />
          </mxGeometry>
        </mxCell>
        <mxCell id="cSzgPnBqxu63beRPkphZ-66" value="" style="endArrow=classic;html=1;rounded=0;exitX=0.5;exitY=1;exitDx=0;exitDy=0;entryX=0.5;entryY=0;entryDx=0;entryDy=0;" edge="1" parent="1" source="cSzgPnBqxu63beRPkphZ-30" target="cSzgPnBqxu63beRPkphZ-31">
          <mxGeometry width="50" height="50" relative="1" as="geometry">
            <mxPoint x="360" y="1030" as="sourcePoint" />
            <mxPoint x="240" y="1090" as="targetPoint" />
          </mxGeometry>
        </mxCell>
        <mxCell id="cSzgPnBqxu63beRPkphZ-67" value="" style="endArrow=classic;html=1;rounded=0;exitX=0.5;exitY=1;exitDx=0;exitDy=0;entryX=0.5;entryY=0;entryDx=0;entryDy=0;" edge="1" parent="1" source="cSzgPnBqxu63beRPkphZ-31" target="cSzgPnBqxu63beRPkphZ-34">
          <mxGeometry width="50" height="50" relative="1" as="geometry">
            <mxPoint x="240" y="1150" as="sourcePoint" />
            <mxPoint x="240" y="1190" as="targetPoint" />
          </mxGeometry>
        </mxCell>
        <mxCell id="cSzgPnBqxu63beRPkphZ-68" value="" style="endArrow=classic;html=1;rounded=0;entryX=0.5;entryY=0;entryDx=0;entryDy=0;" edge="1" parent="1" target="cSzgPnBqxu63beRPkphZ-35">
          <mxGeometry width="50" height="50" relative="1" as="geometry">
            <mxPoint x="230" y="1340" as="sourcePoint" />
            <mxPoint x="240" y="1290" as="targetPoint" />
          </mxGeometry>
        </mxCell>
        <mxCell id="cSzgPnBqxu63beRPkphZ-69" value="" style="endArrow=classic;html=1;rounded=0;entryX=0.5;entryY=0;entryDx=0;entryDy=0;exitX=0.5;exitY=1;exitDx=0;exitDy=0;" edge="1" parent="1" source="cSzgPnBqxu63beRPkphZ-35" target="cSzgPnBqxu63beRPkphZ-36">
          <mxGeometry width="50" height="50" relative="1" as="geometry">
            <mxPoint x="240" y="1350" as="sourcePoint" />
            <mxPoint x="240" y="1380" as="targetPoint" />
          </mxGeometry>
        </mxCell>
        <mxCell id="cSzgPnBqxu63beRPkphZ-70" value="" style="endArrow=classic;html=1;rounded=0;entryX=0.5;entryY=0;entryDx=0;entryDy=0;exitX=0.5;exitY=1;exitDx=0;exitDy=0;" edge="1" parent="1" source="cSzgPnBqxu63beRPkphZ-36" target="cSzgPnBqxu63beRPkphZ-37">
          <mxGeometry width="50" height="50" relative="1" as="geometry">
            <mxPoint x="240" y="1440" as="sourcePoint" />
            <mxPoint x="240" y="1470" as="targetPoint" />
          </mxGeometry>
        </mxCell>
        <mxCell id="cSzgPnBqxu63beRPkphZ-71" value="" style="endArrow=classic;html=1;rounded=0;exitX=0.5;exitY=1;exitDx=0;exitDy=0;" edge="1" parent="1" source="cSzgPnBqxu63beRPkphZ-37" target="cSzgPnBqxu63beRPkphZ-38">
          <mxGeometry width="50" height="50" relative="1" as="geometry">
            <mxPoint x="240" y="1530" as="sourcePoint" />
            <mxPoint x="240" y="1560" as="targetPoint" />
          </mxGeometry>
        </mxCell>
      </root>
    </mxGraphModel>
  </diagram>
</mxfile>
